<?xml version="1.0" encoding="UTF-8" standalone="no"?>
<!-- Created with Inkscape (http://www.inkscape.org/) -->

<svg
   width="40.481251mm"
   height="12.223749mm"
   viewBox="0 0 40.481251 12.223749"
   version="1.1"
   id="svg1"
   inkscape:export-filename="ビットマップ.svg"
   inkscape:export-xdpi="96"
   inkscape:export-ydpi="96"
   xmlns:inkscape="http://www.inkscape.org/namespaces/inkscape"
   xmlns:sodipodi="http://sodipodi.sourceforge.net/DTD/sodipodi-0.dtd"
   xmlns="http://www.w3.org/2000/svg"
   xmlns:svg="http://www.w3.org/2000/svg">
  <sodipodi:namedview
     id="namedview1"
     pagecolor="#ffffff"
     bordercolor="#000000"
     borderopacity="0.25"
     inkscape:showpageshadow="2"
     inkscape:pageopacity="0.0"
     inkscape:pagecheckerboard="0"
     inkscape:deskcolor="#d1d1d1"
     inkscape:document-units="mm" />
  <defs
     id="defs1" />
  <g
     inkscape:label="Layer 1"
     inkscape:groupmode="layer"
     id="layer1"
     transform="translate(-5.1513061,-4.7296235)">
    <path
       d="m 20.602973,10.97379 c 0.105833,-0.343958 0.264583,-0.661458 0.502708,-0.926042 0.211667,-0.2645829 0.502709,-0.4762499 0.820209,-0.6349999 0.3175,-0.15875 0.714375,-0.238125 1.164166,-0.238125 0.449792,0 0.820209,0.07937 1.164167,0.238125 0.3175,0.15875 0.608542,0.370417 0.820208,0.6349999 0.211667,0.264584 0.396875,0.582084 0.502709,0.926042 0.105833,0.343958 0.15875,0.714375 0.15875,1.084792 0,0.370416 -0.05292,0.740833 -0.15875,1.084791 -0.105834,0.343959 -0.264584,0.661459 -0.502709,0.926042 -0.211666,0.264583 -0.502708,0.47625 -0.820208,0.635 -0.3175,0.15875 -0.714375,0.238125 -1.164167,0.238125 -0.449791,0 -0.820208,-0.07937 -1.164166,-0.238125 -0.3175,-0.15875 -0.608542,-0.370417 -0.820209,-0.635 -0.211666,-0.264583 -0.396875,-0.582083 -0.502708,-0.926042 -0.105833,-0.343958 -0.15875,-0.714375 -0.15875,-1.084791 -0.02646,-0.370417 0.02646,-0.740834 0.15875,-1.084792 z m 0.661458,1.905 c 0.07938,0.264583 0.185209,0.502708 0.343959,0.740833 0.15875,0.211667 0.343958,0.396875 0.582083,0.529167 0.238125,0.132292 0.529167,0.185208 0.873125,0.185208 0.343958,0 0.635,-0.05292 0.873125,-0.185208 0.238125,-0.132292 0.449792,-0.3175 0.582083,-0.529167 0.15875,-0.211666 0.264584,-0.449791 0.343959,-0.740833 0.07937,-0.264583 0.105833,-0.555625 0.105833,-0.820208 0,-0.291042 -0.02646,-0.555625 -0.105833,-0.820209 -0.07937,-0.264583 -0.185209,-0.502708 -0.343959,-0.740833 -0.15875,-0.211667 -0.343958,-0.396875 -0.582083,-0.5291669 -0.238125,-0.132291 -0.529167,-0.185208 -0.873125,-0.185208 -0.343958,0 -0.635,0.07937 -0.873125,0.185208 -0.238125,0.1322919 -0.449792,0.3174999 -0.582083,0.5291669 -0.15875,0.211667 -0.264584,0.449792 -0.343959,0.740833 -0.07937,0.264584 -0.105833,0.555625 -0.105833,0.820209 0,0.291041 0.02646,0.555625 0.105833,0.820208 z m 5.820834,-2.037292 v 0.529167 h 0.02646 c 0.105833,-0.211667 0.291041,-0.370417 0.502708,-0.47625 0.238125,-0.105833 0.47625,-0.15875 0.767292,-0.15875 0.3175,0 0.582083,0.05292 0.820208,0.15875 0.238125,0.105833 0.423333,0.264583 0.582083,0.449792 0.15875,0.185208 0.264584,0.423333 0.343959,0.661458 0.07937,0.264583 0.105833,0.529167 0.105833,0.79375 0,0.291042 -0.02646,0.555625 -0.105833,0.79375 -0.07938,0.264583 -0.185209,0.47625 -0.343959,0.661458 -0.15875,0.185209 -0.343958,0.343959 -0.582083,0.449792 -0.238125,0.105833 -0.502708,0.15875 -0.79375,0.15875 -0.105833,0 -0.211667,0 -0.3175,-0.02646 -0.132292,-0.02646 -0.238125,-0.05292 -0.370417,-0.105834 -0.105833,-0.05292 -0.238125,-0.105833 -0.343958,-0.185208 -0.105833,-0.07937 -0.185208,-0.185208 -0.264583,-0.291042 h -0.02646 v 2.06375 H 26.423806 V 10.78858 h 0.661459 z m 2.354791,1.402292 c -0.05292,-0.185208 -0.132291,-0.343958 -0.211666,-0.47625 -0.105834,-0.132292 -0.238125,-0.238125 -0.396875,-0.343958 -0.15875,-0.07937 -0.343959,-0.132292 -0.555625,-0.132292 -0.211667,0 -0.396875,0.05292 -0.555625,0.132292 -0.15875,0.07937 -0.291042,0.211666 -0.370417,0.343958 -0.105833,0.132292 -0.15875,0.291042 -0.211667,0.47625 -0.05292,0.185208 -0.05292,0.370417 -0.05292,0.555625 0,0.185208 0.02646,0.396875 0.07938,0.555625 0.05292,0.185208 0.132292,0.343958 0.211667,0.47625 0.105833,0.132292 0.238125,0.264583 0.396875,0.343958 0.15875,0.07937 0.343958,0.132292 0.582083,0.132292 0.238125,0 0.423334,-0.05292 0.555625,-0.132292 0.132292,-0.07937 0.264584,-0.211666 0.370417,-0.343958 0.105833,-0.132292 0.15875,-0.3175 0.211667,-0.502708 0.05292,-0.185209 0.05292,-0.370417 0.05292,-0.582084 -0.02646,-0.132291 -0.05292,-0.3175 -0.105833,-0.502708 z m 4.339167,2.328333 c -0.291042,0.238125 -0.687917,0.343959 -1.137708,0.343959 -0.3175,0 -0.608542,-0.05292 -0.820209,-0.15875 -0.238125,-0.105834 -0.423333,-0.238125 -0.582083,-0.423334 -0.15875,-0.185208 -0.291042,-0.396875 -0.370417,-0.661458 -0.07937,-0.264583 -0.132291,-0.529167 -0.132291,-0.846667 0,-0.291041 0.05292,-0.582083 0.132291,-0.846666 0.105834,-0.264584 0.211667,-0.47625 0.396875,-0.661459 0.15875,-0.185208 0.370417,-0.3175 0.582084,-0.423333 0.238125,-0.105833 0.47625,-0.15875 0.740833,-0.15875 0.343958,0 0.661458,0.07937 0.873125,0.211667 0.238125,0.15875 0.423333,0.343958 0.555625,0.555625 0.132292,0.238125 0.238125,0.47625 0.291042,0.740833 0.05292,0.264583 0.07937,0.529167 0.05292,0.767292 h -2.989792 c 0,0.185208 0.02646,0.343958 0.05292,0.502708 0.05292,0.15875 0.132291,0.291042 0.211666,0.423333 0.105834,0.132292 0.238125,0.211667 0.396875,0.291042 0.15875,0.07937 0.343959,0.105833 0.555625,0.105833 0.291042,0 0.502709,-0.05292 0.687917,-0.185208 0.185208,-0.132292 0.291042,-0.3175 0.343958,-0.582083 h 0.661459 c -0.02646,0.449791 -0.211667,0.767291 -0.502709,1.005416 z m -0.15875,-2.566458 c -0.05292,-0.132292 -0.132292,-0.264583 -0.238125,-0.370417 -0.105833,-0.105833 -0.211667,-0.185208 -0.343958,-0.238125 -0.132292,-0.05292 -0.291042,-0.07937 -0.449792,-0.07937 -0.15875,0 -0.3175,0.02646 -0.449792,0.07937 -0.132291,0.05292 -0.264583,0.132292 -0.343958,0.238125 -0.105833,0.105834 -0.185208,0.211667 -0.238125,0.370417 -0.05292,0.132292 -0.07938,0.291042 -0.105833,0.449792 h 2.301875 c -0.05292,-0.15875 -0.07937,-0.3175 -0.132292,-0.449792 z m 1.984375,-1.164167 v 0.635 h 0.02646 c 0.264583,-0.47625 0.714375,-0.714375 1.296458,-0.714375 0.264583,0 0.47625,0.02646 0.661458,0.105834 0.185209,0.07937 0.3175,0.185208 0.423334,0.291041 0.105833,0.132292 0.185208,0.291042 0.238125,0.449792 0.05292,0.185208 0.05292,0.370417 0.05292,0.582083 v 2.619375 H 37.64214 v -2.69875 c 0,-0.238125 -0.07937,-0.449791 -0.211667,-0.582083 -0.132292,-0.132292 -0.343958,-0.211667 -0.582083,-0.211667 -0.211667,0 -0.370417,0.02646 -0.529167,0.07937 -0.15875,0.05292 -0.264583,0.15875 -0.370417,0.264584 -0.105833,0.105833 -0.15875,0.238125 -0.211666,0.396875 -0.05292,0.15875 -0.07937,0.3175 -0.07937,0.502708 v 2.248958 H 34.996306 V 10.81504 h 0.608542 z M 40.129223,9.3069151 V 14.836707 H 39.309014 V 9.3069151 Z m 2.8575,0 c 0.846666,0 1.508125,0.211667 1.957916,0.661458 0.449792,0.4233339 0.687917,1.0847919 0.687917,1.9843749 0,0.47625 -0.05292,0.873125 -0.15875,1.243542 -0.105833,0.370417 -0.264583,0.661458 -0.47625,0.899583 -0.211667,0.238125 -0.502708,0.423334 -0.820208,0.555625 -0.343959,0.132292 -0.740834,0.185209 -1.190625,0.185209 H 41.108181 V 9.3069151 Z m 0.07938,4.8947919 c 0.07938,0 0.185208,0 0.3175,-0.02646 0.132291,0 0.264583,-0.05292 0.396875,-0.105833 0.132291,-0.05292 0.264583,-0.132292 0.423333,-0.211667 0.132292,-0.07937 0.264583,-0.211666 0.370417,-0.370416 0.105833,-0.15875 0.185208,-0.370417 0.264583,-0.608542 0.07938,-0.238125 0.105833,-0.529167 0.105833,-0.873125 0,-0.3175 -0.02646,-0.635 -0.105833,-0.873125 -0.05292,-0.264583 -0.15875,-0.47625 -0.3175,-0.661458 -0.15875,-0.185209 -0.343958,-0.3175 -0.555625,-0.423334 C 43.727561,9.9419141 43.436519,9.9154561 43.119019,9.9154561 h -1.27 v 4.2862499 z"
       id="path1"
       style="stroke-width:0.264583" />
    <polygon
       class="st0"
       points="-108.7,290.2 -108.7,294.9 -101.2,291.4 -101.2,248.8 -108.7,252.5 "
       id="polygon2"
       style="fill:#f7931e"
       transform="matrix(0.26458333,0,0,0.26458333,39.917556,-61.098709)" />
    <path
       class="st1"
       d="M 14.491098,11.000248 15.57589,10.391707 C 15.09964,10.100665 14.517556,9.8889981 13.909015,9.7567071 v -1.27 c 1.217083,0.185208 2.301875,0.582083 3.148541,1.084791 l 1.031875,-0.582083 0.264584,2.8574999 z m -7.3289579,1.666875 c 0,-1.322916 1.349375,-2.460625 3.2543749,-2.8839579 v -1.296458 c -3.0162499,0.47625 -5.2652089,2.1695829 -5.2652089,4.1804159 0,2.169584 2.592917,3.96875 5.9795839,4.28625 V 15.709832 C 8.8819311,15.392332 7.1621401,14.14879 7.1621401,12.667123 Z"
       id="path3"
       style="fill:#b3b3b3;stroke-width:0.264583" />
  </g>
</svg>
