<?xml version="1.0" encoding="UTF-8" standalone="no"?>
<!-- Created with Inkscape (http://www.inkscape.org/) -->

<svg
   width="40.481247mm"
   height="12.22375mm"
   viewBox="0 0 40.481247 12.22375"
   version="1.1"
   id="svg1"
   inkscape:version="1.3-beta (cedbd6c, 2023-05-28)"
   xmlns:inkscape="http://www.inkscape.org/namespaces/inkscape"
   xmlns:sodipodi="http://sodipodi.sourceforge.net/DTD/sodipodi-0.dtd"
   xmlns="http://www.w3.org/2000/svg"
   xmlns:svg="http://www.w3.org/2000/svg">
  <sodipodi:namedview
     id="namedview1"
     pagecolor="#ffffff"
     bordercolor="#000000"
     borderopacity="0.25"
     inkscape:showpageshadow="2"
     inkscape:pageopacity="0.0"
     inkscape:pagecheckerboard="0"
     inkscape:deskcolor="#d1d1d1"
     inkscape:document-units="mm"
     inkscape:zoom="0.92737795"
     inkscape:cx="76.55994"
     inkscape:cy="23.183644"
     inkscape:window-width="2216"
     inkscape:window-height="1212"
     inkscape:window-x="363"
     inkscape:window-y="135"
     inkscape:window-maximized="0"
     inkscape:current-layer="layer1" />
  <defs
     id="defs1" />
  <g
     inkscape:label="Layer 1"
     inkscape:groupmode="layer"
     id="layer1"
     transform="translate(-69.629692,-142.38813)">
    <path
       class="st2"
       d="m 75.609276,143.36708 1.984374,-0.97895 v 11.27125 l -1.984374,0.9525 c -3.386667,-0.29105 -5.979584,-2.09021 -5.979584,-4.28625 0,-2.01084 2.248959,-3.70417 5.265209,-4.18042 v 1.29646 c -1.905,0.42333 -3.254375,1.56104 -3.254375,2.88396 0,1.48166 1.719791,2.7252 3.995208,3.01625 v -9.9748 z m 7.196666,6.13834 -0.264583,-2.8575 -1.031875,0.58208 c -0.873125,-0.52917 -1.957917,-0.89958 -3.148542,-1.08479 v 1.29646 c 0.635,0.13229 1.190625,0.37041 1.666875,0.635 l -1.084792,0.60854 z m 2.06375,0.21166 c 0,0.37042 0.05292,0.74084 0.15875,1.0848 0.105833,0.34395 0.264583,0.66145 0.502708,0.92604 0.211667,0.26458 0.502709,0.47625 0.820209,0.635 0.3175,0.15875 0.714375,0.23812 1.164166,0.23812 0.449792,0 0.820209,-0.0794 1.164167,-0.23812 0.3175,-0.15875 0.608542,-0.37042 0.820208,-0.635 0.211667,-0.26459 0.396875,-0.58209 0.502709,-0.92604 0.105833,-0.34396 0.15875,-0.71438 0.15875,-1.0848 0,-0.37041 -0.05292,-0.74083 -0.15875,-1.08479 -0.105834,-0.34396 -0.264584,-0.66146 -0.502709,-0.92604 -0.211666,-0.26458 -0.502708,-0.47625 -0.820208,-0.635 -0.3175,-0.15875 -0.714375,-0.23812 -1.164167,-0.23812 -0.449791,0 -0.820208,0.0794 -1.164166,0.23812 -0.3175,0.15875 -0.608542,0.37042 -0.820209,0.635 -0.211666,0.26458 -0.396875,0.58208 -0.502708,0.92604 -0.105833,0.34396 -0.15875,0.71438 -0.15875,1.08479 z m 0.740833,0 c 0,-0.29104 0.02646,-0.55562 0.105834,-0.8202 0.07937,-0.26459 0.185208,-0.50271 0.343958,-0.74084 0.15875,-0.21166 0.343958,-0.39687 0.582083,-0.52916 0.238125,-0.1323 0.529167,-0.18521 0.873125,-0.18521 0.343959,0 0.635,0.0794 0.873125,0.18521 0.238125,0.13229 0.449792,0.3175 0.582084,0.52916 0.15875,0.21167 0.264583,0.44979 0.343958,0.74084 0.07938,0.26458 0.105833,0.55562 0.105833,0.8202 0,0.29105 -0.02646,0.55563 -0.105833,0.82021 -0.07937,0.26459 -0.185208,0.50271 -0.343958,0.74084 -0.15875,0.21166 -0.343959,0.39687 -0.582084,0.52916 -0.238125,0.13229 -0.529166,0.18521 -0.873125,0.18521 -0.343958,0 -0.635,-0.0529 -0.873125,-0.18521 -0.238125,-0.13229 -0.449791,-0.3175 -0.582083,-0.52916 -0.15875,-0.21167 -0.264583,-0.4498 -0.343958,-0.74084 -0.07937,-0.26458 -0.105834,-0.52916 -0.105834,-0.82021 z M 90.875734,148.5 v 5.52979 h 0.661458 v -2.06375 h 0.02646 c 0.07937,0.10584 0.15875,0.21167 0.264584,0.29104 0.105833,0.0794 0.211666,0.1323 0.343958,0.18521 0.105833,0.0529 0.238125,0.0794 0.370417,0.10584 0.132291,0.0265 0.238125,0.0265 0.3175,0.0265 0.291041,0 0.582083,-0.0529 0.79375,-0.15875 0.238125,-0.10583 0.423333,-0.26458 0.582083,-0.44979 0.15875,-0.18521 0.264583,-0.39687 0.343958,-0.66146 0.07937,-0.26458 0.105834,-0.52916 0.105834,-0.79375 0,-0.29104 -0.02646,-0.55562 -0.105834,-0.79375 -0.07937,-0.26458 -0.185208,-0.47625 -0.343958,-0.66145 -0.15875,-0.18521 -0.343958,-0.34396 -0.582083,-0.4498 -0.238125,-0.10583 -0.502709,-0.15875 -0.820209,-0.15875 -0.291041,0 -0.529166,0.0529 -0.767291,0.15875 -0.238125,0.10584 -0.396875,0.26459 -0.502709,0.47625 h -0.02646 v -0.52916 h -0.661458 z m 3.069166,1.95792 c 0,0.18521 -0.02646,0.39687 -0.05292,0.58208 -0.05292,0.18521 -0.105834,0.34396 -0.211667,0.50271 -0.105833,0.13229 -0.211667,0.26458 -0.370417,0.34396 -0.15875,0.0794 -0.343958,0.13229 -0.555625,0.13229 -0.211666,0 -0.423333,-0.0529 -0.582083,-0.13229 -0.15875,-0.0794 -0.291042,-0.18521 -0.396875,-0.34396 -0.105833,-0.13229 -0.185208,-0.29104 -0.211667,-0.47625 -0.05292,-0.18521 -0.07937,-0.37042 -0.07937,-0.55563 0,-0.1852 0.02646,-0.37041 0.05292,-0.55562 0.05292,-0.18521 0.105833,-0.34396 0.211667,-0.47625 0.105833,-0.13229 0.211666,-0.26458 0.370416,-0.34396 0.15875,-0.0794 0.343959,-0.13229 0.555625,-0.13229 0.211667,0 0.396875,0.0529 0.555625,0.13229 0.15875,0.0794 0.291042,0.18521 0.396875,0.34396 0.105834,0.13229 0.185209,0.29104 0.211667,0.47625 0.07937,0.13229 0.105833,0.3175 0.105833,0.50271 z m 4.868334,0.76729 h -0.661459 c -0.05292,0.26458 -0.185208,0.44979 -0.343958,0.58208 -0.185208,0.13229 -0.396875,0.18521 -0.687917,0.18521 -0.211666,0 -0.396875,-0.0265 -0.555625,-0.10583 -0.15875,-0.0794 -0.291041,-0.15875 -0.396875,-0.29104 -0.105833,-0.1323 -0.185208,-0.26459 -0.211666,-0.42334 -0.05292,-0.15875 -0.07938,-0.3175 -0.05292,-0.50271 h 2.989792 c 0,-0.23812 0,-0.5027 -0.05292,-0.76729 -0.05292,-0.26458 -0.15875,-0.50271 -0.291042,-0.74083 -0.132291,-0.23813 -0.3175,-0.42333 -0.555625,-0.55563 -0.238125,-0.15875 -0.529166,-0.21166 -0.873125,-0.21166 -0.264583,0 -0.529166,0.0529 -0.740833,0.15875 -0.238125,0.10583 -0.423333,0.23812 -0.582083,0.42333 -0.15875,0.18521 -0.291042,0.39688 -0.396875,0.66146 -0.105834,0.26458 -0.132292,0.52917 -0.132292,0.84667 0,0.29104 0.05292,0.58208 0.132292,0.84666 0.07937,0.26459 0.211666,0.47625 0.370416,0.66146 0.15875,0.18521 0.343959,0.3175 0.582084,0.42333 0.238125,0.10584 0.502708,0.15875 0.820208,0.15875 0.449792,0 0.820208,-0.10583 1.137708,-0.34395 0.211667,-0.23813 0.396875,-0.55563 0.502709,-1.00542 z m -0.635,-1.11125 h -2.301875 c 0,-0.15875 0.05292,-0.29104 0.105833,-0.44979 0.05292,-0.13229 0.132292,-0.26459 0.238125,-0.37042 0.105833,-0.10583 0.211667,-0.18521 0.343958,-0.23812 0.132292,-0.0529 0.291042,-0.0794 0.449792,-0.0794 0.15875,0 0.3175,0.0265 0.449792,0.0794 0.132291,0.0529 0.264583,0.13229 0.343958,0.23812 0.105833,0.10583 0.185208,0.21167 0.238125,0.37042 0.07937,0.13229 0.105833,0.29104 0.132292,0.44979 z m 1.27,-1.61396 v 3.99521 h 0.661456 v -2.24896 c 0,-0.18521 0.0265,-0.34396 0.0794,-0.50271 0.0529,-0.15875 0.13229,-0.29104 0.21166,-0.39687 0.10584,-0.10584 0.21167,-0.21167 0.37042,-0.26459 0.15875,-0.0529 0.3175,-0.0794 0.52917,-0.0794 0.26458,0 0.44979,0.0794 0.58208,0.21167 0.13229,0.13229 0.21167,0.34395 0.21167,0.58208 v 2.69875 h 0.66146 v -2.64583 c 0,-0.21167 -0.0265,-0.42334 -0.0529,-0.58209 -0.0529,-0.18521 -0.13229,-0.34396 -0.23813,-0.44979 -0.10583,-0.13229 -0.23812,-0.23812 -0.42333,-0.29104 -0.18521,-0.0794 -0.39687,-0.10583 -0.66146,-0.10583 -0.58208,0 -1.03187,0.23812 -1.29646,0.71437 h -0.0264 V 148.5 Z m 4.312706,-1.53458 v 5.52979 h 0.82021 v -5.52979 z m 1.79917,0 v 5.52979 h 1.905 c 0.44979,0 0.84667,-0.0529 1.19062,-0.18521 0.34396,-0.13229 0.60855,-0.3175 0.82021,-0.55562 0.21167,-0.23813 0.37042,-0.55563 0.47625,-0.89959 0.10584,-0.37041 0.15875,-0.76729 0.15875,-1.24354 0,-0.87312 -0.23812,-1.53458 -0.68791,-1.98437 -0.4498,-0.42334 -1.11125,-0.66146 -1.95792,-0.66146 z m 0.71437,4.89479 v -4.28625 h 1.24355 c 0.34395,0 0.635,0.0529 0.84666,0.13229 0.23813,0.10583 0.42334,0.23813 0.55563,0.42333 0.15875,0.18521 0.26458,0.39688 0.3175,0.66146 0.0529,0.26459 0.10583,0.55563 0.10583,0.87313 0,0.34396 -0.0265,0.635 -0.10583,0.87312 -0.0794,0.23813 -0.15875,0.44979 -0.26459,0.60854 -0.10583,0.15875 -0.23812,0.29105 -0.37041,0.37042 -0.13229,0.10583 -0.26459,0.15875 -0.42334,0.21167 -0.13229,0.0529 -0.26458,0.0794 -0.39687,0.10583 -0.13229,0.0265 -0.23813,0.0265 -0.3175,0.0265 z"
       id="path4"
       inkscape:export-filename="path4.svg"
       inkscape:export-xdpi="96"
       inkscape:export-ydpi="96"
       style="fill:#ffffff;stroke-width:0.264583" />
  </g>
</svg>
